<mxfile host="app.diagrams.net" agent="Mozilla/5.0 (Macintosh; Intel Mac OS X 10_15_7) AppleWebKit/605.1.15 (KHTML, like Gecko) Version/17.6 Safari/605.1.15" version="25.0.1">
  <diagram name="Page-1" id="gcOh2L13ghurHqlArtQZ">
    <mxGraphModel dx="816" dy="480" grid="1" gridSize="10" guides="1" tooltips="1" connect="1" arrows="1" fold="1" page="1" pageScale="1" pageWidth="827" pageHeight="1169" background="#ffffff" math="0" shadow="0">
      <root>
        <mxCell id="0" />
        <mxCell id="1" parent="0" />
        <mxCell id="pkoyU2fwOPBfZemE1w7x-201" style="edgeStyle=orthogonalEdgeStyle;rounded=0;orthogonalLoop=1;jettySize=auto;html=1;exitX=0.5;exitY=1;exitDx=0;exitDy=0;entryX=0.5;entryY=0;entryDx=0;entryDy=0;" edge="1" parent="1" source="pkoyU2fwOPBfZemE1w7x-194" target="pkoyU2fwOPBfZemE1w7x-195">
          <mxGeometry relative="1" as="geometry" />
        </mxCell>
        <mxCell id="pkoyU2fwOPBfZemE1w7x-194" value="" style="ellipse;whiteSpace=wrap;html=1;aspect=fixed;" vertex="1" parent="1">
          <mxGeometry x="360" y="200" width="40" height="40" as="geometry" />
        </mxCell>
        <mxCell id="pkoyU2fwOPBfZemE1w7x-276" style="edgeStyle=orthogonalEdgeStyle;rounded=0;orthogonalLoop=1;jettySize=auto;html=1;exitX=0.5;exitY=1;exitDx=0;exitDy=0;entryX=0.5;entryY=0;entryDx=0;entryDy=0;" edge="1" parent="1" source="pkoyU2fwOPBfZemE1w7x-195" target="pkoyU2fwOPBfZemE1w7x-272">
          <mxGeometry relative="1" as="geometry" />
        </mxCell>
        <mxCell id="pkoyU2fwOPBfZemE1w7x-195" value="Receive a list of integer and an integer n" style="rounded=1;whiteSpace=wrap;html=1;" vertex="1" parent="1">
          <mxGeometry x="320" y="280" width="120" height="40" as="geometry" />
        </mxCell>
        <mxCell id="pkoyU2fwOPBfZemE1w7x-257" value="" style="ellipse;whiteSpace=wrap;html=1;aspect=fixed;strokeWidth=3;" vertex="1" parent="1">
          <mxGeometry x="610" y="360" width="40" height="40" as="geometry" />
        </mxCell>
        <mxCell id="pkoyU2fwOPBfZemE1w7x-274" style="edgeStyle=orthogonalEdgeStyle;rounded=0;orthogonalLoop=1;jettySize=auto;html=1;exitX=1;exitY=0.5;exitDx=0;exitDy=0;entryX=0;entryY=0.5;entryDx=0;entryDy=0;" edge="1" parent="1" source="pkoyU2fwOPBfZemE1w7x-272" target="pkoyU2fwOPBfZemE1w7x-273">
          <mxGeometry relative="1" as="geometry" />
        </mxCell>
        <mxCell id="pkoyU2fwOPBfZemE1w7x-288" value="Yes" style="edgeLabel;html=1;align=center;verticalAlign=middle;resizable=0;points=[];" vertex="1" connectable="0" parent="pkoyU2fwOPBfZemE1w7x-274">
          <mxGeometry x="-0.4551" y="-1" relative="1" as="geometry">
            <mxPoint as="offset" />
          </mxGeometry>
        </mxCell>
        <mxCell id="pkoyU2fwOPBfZemE1w7x-283" style="edgeStyle=orthogonalEdgeStyle;rounded=0;orthogonalLoop=1;jettySize=auto;html=1;exitX=0.5;exitY=1;exitDx=0;exitDy=0;entryX=0.5;entryY=0;entryDx=0;entryDy=0;" edge="1" parent="1" source="pkoyU2fwOPBfZemE1w7x-272" target="pkoyU2fwOPBfZemE1w7x-277">
          <mxGeometry relative="1" as="geometry" />
        </mxCell>
        <mxCell id="pkoyU2fwOPBfZemE1w7x-289" value="No" style="edgeLabel;html=1;align=center;verticalAlign=middle;resizable=0;points=[];" vertex="1" connectable="0" parent="pkoyU2fwOPBfZemE1w7x-283">
          <mxGeometry x="0.0349" y="1" relative="1" as="geometry">
            <mxPoint as="offset" />
          </mxGeometry>
        </mxCell>
        <mxCell id="pkoyU2fwOPBfZemE1w7x-272" value="len(l) == 0" style="rhombus;whiteSpace=wrap;html=1;" vertex="1" parent="1">
          <mxGeometry x="340" y="360" width="80" height="40" as="geometry" />
        </mxCell>
        <mxCell id="pkoyU2fwOPBfZemE1w7x-275" style="edgeStyle=orthogonalEdgeStyle;rounded=0;orthogonalLoop=1;jettySize=auto;html=1;exitX=1;exitY=0.5;exitDx=0;exitDy=0;entryX=0;entryY=0.5;entryDx=0;entryDy=0;" edge="1" parent="1" source="pkoyU2fwOPBfZemE1w7x-273" target="pkoyU2fwOPBfZemE1w7x-257">
          <mxGeometry relative="1" as="geometry" />
        </mxCell>
        <mxCell id="pkoyU2fwOPBfZemE1w7x-273" value="Return (-1, 1)" style="rounded=1;whiteSpace=wrap;html=1;" vertex="1" parent="1">
          <mxGeometry x="460" y="360" width="120" height="40" as="geometry" />
        </mxCell>
        <mxCell id="pkoyU2fwOPBfZemE1w7x-284" style="edgeStyle=orthogonalEdgeStyle;rounded=0;orthogonalLoop=1;jettySize=auto;html=1;exitX=0.5;exitY=1;exitDx=0;exitDy=0;entryX=0.5;entryY=0;entryDx=0;entryDy=0;" edge="1" parent="1" source="pkoyU2fwOPBfZemE1w7x-277" target="pkoyU2fwOPBfZemE1w7x-278">
          <mxGeometry relative="1" as="geometry" />
        </mxCell>
        <mxCell id="pkoyU2fwOPBfZemE1w7x-277" value="Initialise i = 0" style="rounded=1;whiteSpace=wrap;html=1;" vertex="1" parent="1">
          <mxGeometry x="320" y="440" width="120" height="40" as="geometry" />
        </mxCell>
        <mxCell id="pkoyU2fwOPBfZemE1w7x-286" style="edgeStyle=orthogonalEdgeStyle;rounded=0;orthogonalLoop=1;jettySize=auto;html=1;exitX=0.5;exitY=1;exitDx=0;exitDy=0;entryX=0.5;entryY=0;entryDx=0;entryDy=0;" edge="1" parent="1" source="pkoyU2fwOPBfZemE1w7x-278" target="pkoyU2fwOPBfZemE1w7x-285">
          <mxGeometry relative="1" as="geometry" />
        </mxCell>
        <mxCell id="pkoyU2fwOPBfZemE1w7x-290" value="Yes" style="edgeLabel;html=1;align=center;verticalAlign=middle;resizable=0;points=[];" vertex="1" connectable="0" parent="pkoyU2fwOPBfZemE1w7x-286">
          <mxGeometry x="-0.31" y="1" relative="1" as="geometry">
            <mxPoint as="offset" />
          </mxGeometry>
        </mxCell>
        <mxCell id="pkoyU2fwOPBfZemE1w7x-278" value="i &amp;lt; len(l)" style="rhombus;whiteSpace=wrap;html=1;" vertex="1" parent="1">
          <mxGeometry x="340" y="520" width="80" height="40" as="geometry" />
        </mxCell>
        <mxCell id="pkoyU2fwOPBfZemE1w7x-279" value="" style="ellipse;whiteSpace=wrap;html=1;aspect=fixed;strokeWidth=3;" vertex="1" parent="1">
          <mxGeometry x="610" y="520" width="40" height="40" as="geometry" />
        </mxCell>
        <mxCell id="pkoyU2fwOPBfZemE1w7x-280" style="edgeStyle=orthogonalEdgeStyle;rounded=0;orthogonalLoop=1;jettySize=auto;html=1;exitX=1;exitY=0.5;exitDx=0;exitDy=0;entryX=0;entryY=0.5;entryDx=0;entryDy=0;" edge="1" parent="1" target="pkoyU2fwOPBfZemE1w7x-282">
          <mxGeometry relative="1" as="geometry">
            <mxPoint x="420" y="540" as="sourcePoint" />
          </mxGeometry>
        </mxCell>
        <mxCell id="pkoyU2fwOPBfZemE1w7x-287" value="No" style="edgeLabel;html=1;align=center;verticalAlign=middle;resizable=0;points=[];" vertex="1" connectable="0" parent="pkoyU2fwOPBfZemE1w7x-280">
          <mxGeometry x="-0.4602" y="-1" relative="1" as="geometry">
            <mxPoint as="offset" />
          </mxGeometry>
        </mxCell>
        <mxCell id="pkoyU2fwOPBfZemE1w7x-281" style="edgeStyle=orthogonalEdgeStyle;rounded=0;orthogonalLoop=1;jettySize=auto;html=1;exitX=1;exitY=0.5;exitDx=0;exitDy=0;entryX=0;entryY=0.5;entryDx=0;entryDy=0;" edge="1" parent="1" source="pkoyU2fwOPBfZemE1w7x-282" target="pkoyU2fwOPBfZemE1w7x-279">
          <mxGeometry relative="1" as="geometry" />
        </mxCell>
        <mxCell id="pkoyU2fwOPBfZemE1w7x-282" value="Return (-1, 1)" style="rounded=1;whiteSpace=wrap;html=1;" vertex="1" parent="1">
          <mxGeometry x="460" y="520" width="120" height="40" as="geometry" />
        </mxCell>
        <mxCell id="pkoyU2fwOPBfZemE1w7x-299" style="edgeStyle=orthogonalEdgeStyle;rounded=0;orthogonalLoop=1;jettySize=auto;html=1;exitX=0.5;exitY=1;exitDx=0;exitDy=0;entryX=0.5;entryY=0;entryDx=0;entryDy=0;" edge="1" parent="1" source="pkoyU2fwOPBfZemE1w7x-285" target="pkoyU2fwOPBfZemE1w7x-291">
          <mxGeometry relative="1" as="geometry" />
        </mxCell>
        <mxCell id="pkoyU2fwOPBfZemE1w7x-285" value="Initialise j = i + 1" style="rounded=1;whiteSpace=wrap;html=1;" vertex="1" parent="1">
          <mxGeometry x="320" y="600" width="120" height="40" as="geometry" />
        </mxCell>
        <mxCell id="pkoyU2fwOPBfZemE1w7x-294" style="edgeStyle=orthogonalEdgeStyle;rounded=0;orthogonalLoop=1;jettySize=auto;html=1;exitX=0;exitY=0.5;exitDx=0;exitDy=0;entryX=1;entryY=0.5;entryDx=0;entryDy=0;" edge="1" parent="1" source="pkoyU2fwOPBfZemE1w7x-291" target="pkoyU2fwOPBfZemE1w7x-292">
          <mxGeometry relative="1" as="geometry" />
        </mxCell>
        <mxCell id="pkoyU2fwOPBfZemE1w7x-295" value="No" style="edgeLabel;html=1;align=center;verticalAlign=middle;resizable=0;points=[];" vertex="1" connectable="0" parent="pkoyU2fwOPBfZemE1w7x-294">
          <mxGeometry x="-0.3035" y="1" relative="1" as="geometry">
            <mxPoint as="offset" />
          </mxGeometry>
        </mxCell>
        <mxCell id="pkoyU2fwOPBfZemE1w7x-300" style="edgeStyle=orthogonalEdgeStyle;rounded=0;orthogonalLoop=1;jettySize=auto;html=1;exitX=0.5;exitY=1;exitDx=0;exitDy=0;entryX=0.5;entryY=0;entryDx=0;entryDy=0;" edge="1" parent="1" source="pkoyU2fwOPBfZemE1w7x-291" target="pkoyU2fwOPBfZemE1w7x-296">
          <mxGeometry relative="1" as="geometry" />
        </mxCell>
        <mxCell id="pkoyU2fwOPBfZemE1w7x-301" value="Yes" style="edgeLabel;html=1;align=center;verticalAlign=middle;resizable=0;points=[];" vertex="1" connectable="0" parent="pkoyU2fwOPBfZemE1w7x-300">
          <mxGeometry x="0.0004" y="2" relative="1" as="geometry">
            <mxPoint as="offset" />
          </mxGeometry>
        </mxCell>
        <mxCell id="pkoyU2fwOPBfZemE1w7x-291" value="j &amp;lt; len(l)" style="rhombus;whiteSpace=wrap;html=1;" vertex="1" parent="1">
          <mxGeometry x="340" y="680" width="80" height="40" as="geometry" />
        </mxCell>
        <mxCell id="pkoyU2fwOPBfZemE1w7x-293" style="edgeStyle=orthogonalEdgeStyle;rounded=0;orthogonalLoop=1;jettySize=auto;html=1;exitX=0.5;exitY=0;exitDx=0;exitDy=0;" edge="1" parent="1" source="pkoyU2fwOPBfZemE1w7x-292">
          <mxGeometry relative="1" as="geometry">
            <mxPoint x="380" y="500" as="targetPoint" />
            <Array as="points">
              <mxPoint x="240" y="500" />
            </Array>
          </mxGeometry>
        </mxCell>
        <mxCell id="pkoyU2fwOPBfZemE1w7x-292" value="i += 1" style="rounded=1;whiteSpace=wrap;html=1;" vertex="1" parent="1">
          <mxGeometry x="180" y="680" width="120" height="40" as="geometry" />
        </mxCell>
        <mxCell id="pkoyU2fwOPBfZemE1w7x-298" style="edgeStyle=orthogonalEdgeStyle;rounded=0;orthogonalLoop=1;jettySize=auto;html=1;exitX=1;exitY=0.5;exitDx=0;exitDy=0;entryX=0;entryY=0.5;entryDx=0;entryDy=0;" edge="1" parent="1" source="pkoyU2fwOPBfZemE1w7x-296" target="pkoyU2fwOPBfZemE1w7x-297">
          <mxGeometry relative="1" as="geometry" />
        </mxCell>
        <mxCell id="pkoyU2fwOPBfZemE1w7x-303" value="No" style="edgeLabel;html=1;align=center;verticalAlign=middle;resizable=0;points=[];" vertex="1" connectable="0" parent="pkoyU2fwOPBfZemE1w7x-298">
          <mxGeometry x="-0.3171" y="3" relative="1" as="geometry">
            <mxPoint y="3" as="offset" />
          </mxGeometry>
        </mxCell>
        <mxCell id="pkoyU2fwOPBfZemE1w7x-305" style="edgeStyle=orthogonalEdgeStyle;rounded=0;orthogonalLoop=1;jettySize=auto;html=1;exitX=0.5;exitY=1;exitDx=0;exitDy=0;entryX=0.5;entryY=0;entryDx=0;entryDy=0;" edge="1" parent="1" source="pkoyU2fwOPBfZemE1w7x-296" target="pkoyU2fwOPBfZemE1w7x-304">
          <mxGeometry relative="1" as="geometry" />
        </mxCell>
        <mxCell id="pkoyU2fwOPBfZemE1w7x-308" value="Yes" style="edgeLabel;html=1;align=center;verticalAlign=middle;resizable=0;points=[];" vertex="1" connectable="0" parent="pkoyU2fwOPBfZemE1w7x-305">
          <mxGeometry x="-0.172" y="1" relative="1" as="geometry">
            <mxPoint as="offset" />
          </mxGeometry>
        </mxCell>
        <mxCell id="pkoyU2fwOPBfZemE1w7x-296" value="l[i]+l[j]==n" style="rhombus;whiteSpace=wrap;html=1;" vertex="1" parent="1">
          <mxGeometry x="340" y="760" width="80" height="40" as="geometry" />
        </mxCell>
        <mxCell id="pkoyU2fwOPBfZemE1w7x-302" style="edgeStyle=orthogonalEdgeStyle;rounded=0;orthogonalLoop=1;jettySize=auto;html=1;exitX=0.5;exitY=0;exitDx=0;exitDy=0;" edge="1" parent="1" source="pkoyU2fwOPBfZemE1w7x-297">
          <mxGeometry relative="1" as="geometry">
            <mxPoint x="380" y="660" as="targetPoint" />
            <Array as="points">
              <mxPoint x="520" y="660" />
            </Array>
          </mxGeometry>
        </mxCell>
        <mxCell id="pkoyU2fwOPBfZemE1w7x-297" value="j += 1" style="rounded=1;whiteSpace=wrap;html=1;" vertex="1" parent="1">
          <mxGeometry x="460" y="760" width="120" height="40" as="geometry" />
        </mxCell>
        <mxCell id="pkoyU2fwOPBfZemE1w7x-307" style="edgeStyle=orthogonalEdgeStyle;rounded=0;orthogonalLoop=1;jettySize=auto;html=1;exitX=0.5;exitY=1;exitDx=0;exitDy=0;entryX=0.5;entryY=0;entryDx=0;entryDy=0;" edge="1" parent="1" source="pkoyU2fwOPBfZemE1w7x-304" target="pkoyU2fwOPBfZemE1w7x-306">
          <mxGeometry relative="1" as="geometry" />
        </mxCell>
        <mxCell id="pkoyU2fwOPBfZemE1w7x-304" value="Return (i, j)" style="rounded=1;whiteSpace=wrap;html=1;" vertex="1" parent="1">
          <mxGeometry x="320" y="840" width="120" height="40" as="geometry" />
        </mxCell>
        <mxCell id="pkoyU2fwOPBfZemE1w7x-306" value="" style="ellipse;whiteSpace=wrap;html=1;aspect=fixed;strokeWidth=3;" vertex="1" parent="1">
          <mxGeometry x="360" y="920" width="40" height="40" as="geometry" />
        </mxCell>
      </root>
    </mxGraphModel>
  </diagram>
</mxfile>
